<svg width="1440" height="98" viewBox="0 0 1440 98" fill="none" xmlns="http://www.w3.org/2000/svg">
<path d="M72 48V80V84.5V96C70.7878 96.4648 70.2502 96.339 69.5 95.5L68 93L67 91C66.3378 90.1278 65.7409 89.9297 64 90.5L61.5 91.5C57.7198 91.1996 56.6146 90.4193 55.5 88.5L51.5 88C50.0443 88.9543 49.1659 89.0548 47.5 88.5H45.5V89L44.5 90.5L43 91.5C41.6331 90.9005 40.8669 90.9374 39.5 91.5L36.5 93C35.2914 93.449 34.421 93.6152 32 93.5H29L26.5 92.5L23 93L21 93.5H18.5L15 93L13.5 92H12L10.5 94C9.46267 94.7048 8.30308 94.9122 5 95L0 97V80V0H72V48Z" fill="url(#paint0_linear_140447_3399)"/>
<path d="M1368 0H1440V80V93L1436.5 92H1432.5L1430 93L1427.5 94.5C1426.49 94.9863 1425.84 95.0147 1424.5 94.5L1422.5 93H1419H1417H1414L1411 93.5L1409.5 94.5C1409 94.3333 1407.9 94.1 1407.5 94.5C1407.1 94.9 1405.67 95.6667 1405 96L1404.5 96.5C1404.5 96.5 1404.04 95.8967 1403 96.5C1401.6 97.3132 1401.57 97.0885 1400.5 96.5C1399.62 96.0193 1399 96.5 1398.5 96C1398 95.5 1398.5 95.5 1397 94.5C1395.5 93.5 1395.5 94 1394.5 93.5C1393.5 93 1393.5 92 1391 92C1389 92 1385.5 93 1386.5 92C1386.33 92.1667 1385.6 92.6 1384 93C1382 93.5 1381 94.5 1380 94.5H1377H1372.5C1371.7 94.5 1370.5 95.1667 1370 95.5L1368 96V80V0Z" fill="url(#paint1_linear_140447_3399)"/>
<defs>
<linearGradient id="paint0_linear_140447_3399" x1="720" y1="0" x2="720" y2="97.029" gradientUnits="userSpaceOnUse">
<stop offset="0.15625"/>
<stop offset="1" stop-opacity="0.8"/>
</linearGradient>
<linearGradient id="paint1_linear_140447_3399" x1="720" y1="0" x2="720" y2="97.029" gradientUnits="userSpaceOnUse">
<stop offset="0.15625"/>
<stop offset="1" stop-opacity="0.8"/>
</linearGradient>
</defs>
</svg>
